<mxfile host="app.diagrams.net" modified="2022-03-22T02:44:34.456Z" agent="5.0 (Macintosh; Intel Mac OS X 10_15_7) AppleWebKit/605.1.15 (KHTML, like Gecko) Version/15.1 Safari/605.1.15" etag="Vf-2NyK6fq6qmps-Vbnc" version="17.1.3" type="github">
  <diagram id="EsC2Hzitvl2C8W4MN_cd" name="Page-1">
    <mxGraphModel dx="813" dy="606" grid="1" gridSize="10" guides="1" tooltips="1" connect="1" arrows="1" fold="1" page="1" pageScale="1" pageWidth="827" pageHeight="1169" math="0" shadow="0">
      <root>
        <mxCell id="0" />
        <mxCell id="1" parent="0" />
        <mxCell id="YzSAeH3SV0ryD27Wd0aZ-28" value="" style="rounded=0;whiteSpace=wrap;html=1;dashed=1;" parent="1" vertex="1">
          <mxGeometry x="22" y="150" width="680" height="490" as="geometry" />
        </mxCell>
        <mxCell id="YzSAeH3SV0ryD27Wd0aZ-1" value="" style="rounded=1;whiteSpace=wrap;html=1;fontSize=12;fillColor=#FFFFFF;strokeColor=#97D077;" parent="1" vertex="1">
          <mxGeometry x="90" y="270" width="600" height="190" as="geometry" />
        </mxCell>
        <mxCell id="q-WxI4bdCByzv-zKM2p_-3" value="" style="rounded=1;whiteSpace=wrap;html=1;strokeColor=#97D077;fillColor=#FFFFFF;" vertex="1" parent="1">
          <mxGeometry x="94.5" y="289" width="90" height="150" as="geometry" />
        </mxCell>
        <mxCell id="gV4cx4a58wu5mKHUhv7m-3" value="" style="rounded=1;whiteSpace=wrap;html=1;strokeColor=#97D077;fillColor=#FFFFFF;" parent="1" vertex="1">
          <mxGeometry x="192" y="290" width="90" height="150" as="geometry" />
        </mxCell>
        <mxCell id="YzSAeH3SV0ryD27Wd0aZ-29" value="" style="rounded=0;whiteSpace=wrap;html=1;dashed=1;" parent="1" vertex="1">
          <mxGeometry x="725" y="234" width="170" height="260" as="geometry" />
        </mxCell>
        <mxCell id="YzSAeH3SV0ryD27Wd0aZ-17" value="" style="rounded=1;whiteSpace=wrap;html=1;strokeColor=#7EA6E0;fillColor=#FFFFFF;" parent="1" vertex="1">
          <mxGeometry x="742.5" y="270" width="130" height="160" as="geometry" />
        </mxCell>
        <mxCell id="YzSAeH3SV0ryD27Wd0aZ-2" value="" style="rounded=1;whiteSpace=wrap;html=1;strokeColor=#97D077;fillColor=#FFFFFF;" parent="1" vertex="1">
          <mxGeometry x="489" y="290" width="100" height="150" as="geometry" />
        </mxCell>
        <mxCell id="YzSAeH3SV0ryD27Wd0aZ-3" value="" style="rounded=1;whiteSpace=wrap;html=1;strokeColor=#97D077;fillColor=#FFFFFF;" parent="1" vertex="1">
          <mxGeometry x="90" y="479" width="600" height="61" as="geometry" />
        </mxCell>
        <mxCell id="YzSAeH3SV0ryD27Wd0aZ-4" value="" style="rounded=1;whiteSpace=wrap;html=1;strokeColor=#B9E0A5;fillColor=#FFFFFF;" parent="1" vertex="1">
          <mxGeometry x="394" y="290" width="88" height="150" as="geometry" />
        </mxCell>
        <mxCell id="YzSAeH3SV0ryD27Wd0aZ-5" value="" style="rounded=1;whiteSpace=wrap;html=1;strokeColor=#97D077;fillColor=#FFFFFF;" parent="1" vertex="1">
          <mxGeometry x="289" y="290" width="99" height="150" as="geometry" />
        </mxCell>
        <mxCell id="YzSAeH3SV0ryD27Wd0aZ-6" value="&lt;span style=&quot;font-size: 12px&quot;&gt;作业启动&lt;/span&gt;" style="rounded=0;whiteSpace=wrap;html=1;fontSize=18;fillColor=#B9E0A5;" parent="1" vertex="1">
          <mxGeometry x="399" y="320" width="77" height="30" as="geometry" />
        </mxCell>
        <mxCell id="YzSAeH3SV0ryD27Wd0aZ-7" value="&lt;span style=&quot;font-size: 12px&quot;&gt;展示作业列表&lt;/span&gt;" style="rounded=0;whiteSpace=wrap;html=1;fontSize=18;fillColor=#B9E0A5;" parent="1" vertex="1">
          <mxGeometry x="497" y="320" width="82" height="30" as="geometry" />
        </mxCell>
        <mxCell id="YzSAeH3SV0ryD27Wd0aZ-8" value="参数配置" style="rounded=0;whiteSpace=wrap;html=1;fontSize=12;fillColor=#B9E0A5;" parent="1" vertex="1">
          <mxGeometry x="296.5" y="320" width="81.5" height="30" as="geometry" />
        </mxCell>
        <mxCell id="YzSAeH3SV0ryD27Wd0aZ-9" value="选择配置文件" style="rounded=0;whiteSpace=wrap;html=1;fontSize=12;fillColor=#B9E0A5;" parent="1" vertex="1">
          <mxGeometry x="296.5" y="360" width="81.5" height="30" as="geometry" />
        </mxCell>
        <mxCell id="YzSAeH3SV0ryD27Wd0aZ-10" value="&lt;b&gt;&lt;font style=&quot;font-size: 14px&quot;&gt;作业提交&lt;/font&gt;&lt;/b&gt;" style="text;html=1;strokeColor=none;fillColor=none;align=center;verticalAlign=middle;whiteSpace=wrap;rounded=0;fontFamily=Helvetica;" parent="1" vertex="1">
          <mxGeometry x="303.5" y="290" width="60" height="30" as="geometry" />
        </mxCell>
        <mxCell id="YzSAeH3SV0ryD27Wd0aZ-11" value="&lt;span style=&quot;font-size: 12px&quot;&gt;作业停止&lt;/span&gt;" style="rounded=0;whiteSpace=wrap;html=1;fontSize=18;fillColor=#B9E0A5;" parent="1" vertex="1">
          <mxGeometry x="399" y="360" width="77" height="30" as="geometry" />
        </mxCell>
        <mxCell id="YzSAeH3SV0ryD27Wd0aZ-12" value="&lt;span style=&quot;font-size: 14px&quot;&gt;&lt;b&gt;作业管控&lt;/b&gt;&lt;/span&gt;" style="text;html=1;strokeColor=none;fillColor=none;align=center;verticalAlign=middle;whiteSpace=wrap;rounded=0;fontFamily=Helvetica;" parent="1" vertex="1">
          <mxGeometry x="406" y="290" width="60" height="30" as="geometry" />
        </mxCell>
        <mxCell id="YzSAeH3SV0ryD27Wd0aZ-13" value="&lt;span style=&quot;font-size: 12px&quot;&gt;展示作业运行状态&lt;/span&gt;" style="rounded=0;whiteSpace=wrap;html=1;fontSize=18;fillColor=#B9E0A5;" parent="1" vertex="1">
          <mxGeometry x="497" y="360" width="82" height="40" as="geometry" />
        </mxCell>
        <mxCell id="YzSAeH3SV0ryD27Wd0aZ-14" value="&lt;span style=&quot;font-size: 14px&quot;&gt;&lt;b&gt;YARN&lt;/b&gt;&lt;/span&gt;" style="text;html=1;strokeColor=none;fillColor=none;align=center;verticalAlign=middle;whiteSpace=wrap;rounded=0;fontFamily=Helvetica;" parent="1" vertex="1">
          <mxGeometry x="755" y="270" width="60" height="30" as="geometry" />
        </mxCell>
        <mxCell id="YzSAeH3SV0ryD27Wd0aZ-15" value="&lt;font style=&quot;font-size: 14px&quot;&gt;&lt;b&gt;应用层&lt;/b&gt;&lt;/font&gt;" style="text;html=1;strokeColor=none;fillColor=none;align=center;verticalAlign=middle;whiteSpace=wrap;rounded=0;" parent="1" vertex="1">
          <mxGeometry x="12" y="349" width="92.5" height="30" as="geometry" />
        </mxCell>
        <mxCell id="YzSAeH3SV0ryD27Wd0aZ-16" value="&lt;b&gt;&lt;font style=&quot;font-size: 14px&quot;&gt;持久化层&lt;/font&gt;&lt;/b&gt;" style="text;html=1;strokeColor=none;fillColor=none;align=center;verticalAlign=middle;whiteSpace=wrap;rounded=0;" parent="1" vertex="1">
          <mxGeometry x="12" y="570" width="92.5" height="30" as="geometry" />
        </mxCell>
        <mxCell id="YzSAeH3SV0ryD27Wd0aZ-18" value="&lt;b&gt;&lt;font style=&quot;font-size: 14px&quot;&gt;作业展示&lt;/font&gt;&lt;/b&gt;" style="text;html=1;strokeColor=none;fillColor=none;align=center;verticalAlign=middle;whiteSpace=wrap;rounded=0;fontFamily=Helvetica;" parent="1" vertex="1">
          <mxGeometry x="512" y="290" width="60" height="30" as="geometry" />
        </mxCell>
        <mxCell id="YzSAeH3SV0ryD27Wd0aZ-19" value="&lt;b&gt;&lt;font style=&quot;font-size: 18px&quot;&gt;行内系统&lt;/font&gt;&lt;/b&gt;" style="text;html=1;strokeColor=none;fillColor=none;align=center;verticalAlign=middle;whiteSpace=wrap;rounded=0;fontFamily=Helvetica;" parent="1" vertex="1">
          <mxGeometry x="725" y="230" width="80" height="30" as="geometry" />
        </mxCell>
        <mxCell id="YzSAeH3SV0ryD27Wd0aZ-20" value="&lt;span style=&quot;font-size: 12px&quot;&gt;flink作业详情&lt;/span&gt;" style="rounded=0;whiteSpace=wrap;html=1;fontSize=18;fillColor=#7EA6E0;" parent="1" vertex="1">
          <mxGeometry x="752.5" y="300" width="110" height="30" as="geometry" />
        </mxCell>
        <mxCell id="YzSAeH3SV0ryD27Wd0aZ-21" value="&lt;font style=&quot;font-size: 14px&quot;&gt;&lt;b&gt;处理层&lt;/b&gt;&lt;/font&gt;" style="text;html=1;strokeColor=none;fillColor=none;align=center;verticalAlign=middle;whiteSpace=wrap;rounded=0;" parent="1" vertex="1">
          <mxGeometry x="12" y="500" width="92.5" height="30" as="geometry" />
        </mxCell>
        <mxCell id="YzSAeH3SV0ryD27Wd0aZ-22" value="" style="rounded=1;whiteSpace=wrap;html=1;strokeColor=#97D077;fillColor=#FFFFFF;" parent="1" vertex="1">
          <mxGeometry x="90" y="560" width="600" height="50" as="geometry" />
        </mxCell>
        <mxCell id="YzSAeH3SV0ryD27Wd0aZ-23" value="GaussDB数据库" style="rounded=0;whiteSpace=wrap;html=1;fontSize=12;fillColor=#B9E0A5;" parent="1" vertex="1">
          <mxGeometry x="343" y="570" width="110" height="30" as="geometry" />
        </mxCell>
        <mxCell id="YzSAeH3SV0ryD27Wd0aZ-24" value="HDFS文件存储" style="rounded=0;whiteSpace=wrap;html=1;fontSize=12;fillColor=#7EA6E0;" parent="1" vertex="1">
          <mxGeometry x="755" y="440" width="110" height="30" as="geometry" />
        </mxCell>
        <mxCell id="YzSAeH3SV0ryD27Wd0aZ-25" value="" style="rounded=1;whiteSpace=wrap;html=1;fontSize=12;fillColor=#FFFFFF;strokeColor=#97D077;" parent="1" vertex="1">
          <mxGeometry x="90" y="190" width="600" height="60" as="geometry" />
        </mxCell>
        <mxCell id="YzSAeH3SV0ryD27Wd0aZ-26" value="webUI" style="rounded=0;whiteSpace=wrap;html=1;fontSize=12;fillColor=#B9E0A5;" parent="1" vertex="1">
          <mxGeometry x="140" y="205" width="500" height="30" as="geometry" />
        </mxCell>
        <mxCell id="YzSAeH3SV0ryD27Wd0aZ-27" value="&lt;font style=&quot;font-size: 14px&quot;&gt;&lt;b&gt;表现层&lt;/b&gt;&lt;/font&gt;" style="text;html=1;strokeColor=none;fillColor=none;align=center;verticalAlign=middle;whiteSpace=wrap;rounded=0;" parent="1" vertex="1">
          <mxGeometry x="12" y="200" width="92.5" height="30" as="geometry" />
        </mxCell>
        <mxCell id="YzSAeH3SV0ryD27Wd0aZ-30" value="" style="endArrow=classic;html=1;rounded=0;entryX=0;entryY=0.5;entryDx=0;entryDy=0;exitX=1.001;exitY=0.438;exitDx=0;exitDy=0;exitPerimeter=0;" parent="1" source="YzSAeH3SV0ryD27Wd0aZ-28" target="YzSAeH3SV0ryD27Wd0aZ-29" edge="1">
          <mxGeometry width="50" height="50" relative="1" as="geometry">
            <mxPoint x="705" y="400" as="sourcePoint" />
            <mxPoint x="527.5" y="660" as="targetPoint" />
          </mxGeometry>
        </mxCell>
        <mxCell id="YzSAeH3SV0ryD27Wd0aZ-31" value="&lt;span style=&quot;font-size: 12px&quot;&gt;flink作业调度&lt;/span&gt;" style="rounded=0;whiteSpace=wrap;html=1;fontSize=18;fillColor=#7EA6E0;" parent="1" vertex="1">
          <mxGeometry x="752.5" y="340" width="110" height="30" as="geometry" />
        </mxCell>
        <mxCell id="YzSAeH3SV0ryD27Wd0aZ-32" value="&lt;span style=&quot;font-size: 12px&quot;&gt;flink作业执行&lt;/span&gt;" style="rounded=0;whiteSpace=wrap;html=1;fontSize=18;fillColor=#7EA6E0;" parent="1" vertex="1">
          <mxGeometry x="752.5" y="380" width="110" height="30" as="geometry" />
        </mxCell>
        <mxCell id="YzSAeH3SV0ryD27Wd0aZ-33" value="数据库交互" style="rounded=0;whiteSpace=wrap;html=1;fontSize=12;fillColor=#B9E0A5;" parent="1" vertex="1">
          <mxGeometry x="170" y="496" width="110" height="30" as="geometry" />
        </mxCell>
        <mxCell id="YzSAeH3SV0ryD27Wd0aZ-34" value="文件读取" style="rounded=0;whiteSpace=wrap;html=1;fontSize=12;fillColor=#B9E0A5;" parent="1" vertex="1">
          <mxGeometry x="343" y="496" width="110" height="30" as="geometry" />
        </mxCell>
        <mxCell id="YzSAeH3SV0ryD27Wd0aZ-36" value="&lt;b&gt;&lt;font style=&quot;font-size: 18px&quot;&gt;Flink作业管控系统&lt;/font&gt;&lt;/b&gt;" style="text;html=1;strokeColor=none;fillColor=none;align=center;verticalAlign=middle;whiteSpace=wrap;rounded=0;fontFamily=Helvetica;" parent="1" vertex="1">
          <mxGeometry x="40" y="150" width="159" height="30" as="geometry" />
        </mxCell>
        <mxCell id="0565Y68Z-H2RKIHmMN8B-1" value="消息队列" style="rounded=0;whiteSpace=wrap;html=1;fontSize=12;fillColor=#B9E0A5;" parent="1" vertex="1">
          <mxGeometry x="520" y="500" width="110" height="30" as="geometry" />
        </mxCell>
        <mxCell id="0565Y68Z-H2RKIHmMN8B-2" value="选择jar包" style="rounded=0;whiteSpace=wrap;html=1;fontSize=12;fillColor=#B9E0A5;" parent="1" vertex="1">
          <mxGeometry x="296.5" y="400" width="81.5" height="30" as="geometry" />
        </mxCell>
        <mxCell id="gV4cx4a58wu5mKHUhv7m-6" value="&lt;span style=&quot;font-size: 14px&quot;&gt;&lt;b&gt;部署配置&lt;/b&gt;&lt;/span&gt;" style="text;html=1;strokeColor=none;fillColor=none;align=center;verticalAlign=middle;whiteSpace=wrap;rounded=0;fontFamily=Helvetica;" parent="1" vertex="1">
          <mxGeometry x="189.5" y="290" width="95" height="30" as="geometry" />
        </mxCell>
        <mxCell id="gV4cx4a58wu5mKHUhv7m-12" value="&lt;span style=&quot;font-size: 14px&quot;&gt;&lt;b&gt;制品库&lt;/b&gt;&lt;/span&gt;" style="text;html=1;strokeColor=none;fillColor=none;align=center;verticalAlign=middle;whiteSpace=wrap;rounded=0;fontFamily=Helvetica;" parent="1" vertex="1">
          <mxGeometry x="91.5" y="290" width="95" height="30" as="geometry" />
        </mxCell>
        <mxCell id="q-WxI4bdCByzv-zKM2p_-1" value="配置作业队列" style="rounded=0;whiteSpace=wrap;html=1;fontSize=12;fillColor=#B9E0A5;" vertex="1" parent="1">
          <mxGeometry x="196.25" y="320" width="81.5" height="30" as="geometry" />
        </mxCell>
        <mxCell id="q-WxI4bdCByzv-zKM2p_-2" value="上传文件" style="rounded=0;whiteSpace=wrap;html=1;fontSize=12;fillColor=#B9E0A5;" vertex="1" parent="1">
          <mxGeometry x="98.75" y="320" width="81.5" height="30" as="geometry" />
        </mxCell>
        <mxCell id="q-WxI4bdCByzv-zKM2p_-5" value="" style="rounded=1;whiteSpace=wrap;html=1;strokeColor=#97D077;fillColor=#FFFFFF;" vertex="1" parent="1">
          <mxGeometry x="595" y="290" width="90" height="150" as="geometry" />
        </mxCell>
        <mxCell id="q-WxI4bdCByzv-zKM2p_-6" value="&lt;span style=&quot;font-size: 14px&quot;&gt;&lt;b&gt;Yarn集群管理&lt;/b&gt;&lt;/span&gt;" style="text;html=1;strokeColor=none;fillColor=none;align=center;verticalAlign=middle;whiteSpace=wrap;rounded=0;fontFamily=Helvetica;" vertex="1" parent="1">
          <mxGeometry x="595" y="290" width="90" height="30" as="geometry" />
        </mxCell>
        <mxCell id="q-WxI4bdCByzv-zKM2p_-7" value="&lt;span style=&quot;font-size: 12px&quot;&gt;yarn集群配置&lt;/span&gt;" style="rounded=0;whiteSpace=wrap;html=1;fontSize=18;fillColor=#B9E0A5;" vertex="1" parent="1">
          <mxGeometry x="599" y="320" width="82" height="30" as="geometry" />
        </mxCell>
        <mxCell id="q-WxI4bdCByzv-zKM2p_-8" value="&lt;span style=&quot;font-size: 12px&quot;&gt;展示yarn集群列表列表&lt;/span&gt;" style="rounded=0;whiteSpace=wrap;html=1;fontSize=18;fillColor=#B9E0A5;" vertex="1" parent="1">
          <mxGeometry x="599" y="360" width="82" height="40" as="geometry" />
        </mxCell>
      </root>
    </mxGraphModel>
  </diagram>
</mxfile>
